<svg xmlns="http://www.w3.org/2000/svg" xmlns:xlink="http://www.w3.org/1999/xlink" viewBox="0 0 174.55 413.68"><defs><style>.cls-1,.cls-29,.cls-36{fill:none;}.cls-2{isolation:isolate;}.cls-3{clip-path:url(#clip-path);}.cls-4{fill:#40180e;}.cls-5{fill:#6b270c;}.cls-6{fill:#7d2e10;}.cls-7{fill:#4f1c0e;}.cls-8{fill:#343434;}.cls-9{fill:#f5a45f;}.cls-10{fill:#e37922;}.cls-11{fill:#098cbb;}.cls-12{fill:#02679a;}.cls-13{fill:#cc1517;}.cls-14{fill:#a91916;}.cls-15{fill:#0099cd;}.cls-16,.cls-28{fill:#010101;}.cls-16{fill-opacity:0.3;}.cls-17{fill:#cdcccc;}.cls-18,.cls-45{fill:#fff;}.cls-19{fill:#c1bbbb;}.cls-20{fill:#f59f5a;}.cls-21{fill:#bf7334;}.cls-22{fill:#f8b278;}.cls-23{fill:#f8b47c;}.cls-24{fill:url(#linear-gradient);}.cls-25{fill:#ec8736;}.cls-26{fill:#9a9999;}.cls-27{fill:#381011;}.cls-29{stroke:#fff;stroke-width:2px;}.cls-29,.cls-36,.cls-38{stroke-linecap:round;stroke-linejoin:round;}.cls-30{fill:#e6781f;}.cls-31{fill:#2b1b10;}.cls-32{fill:#3fc0f0;fill-opacity:0.1;}.cls-33{fill:#428fc7;}.cls-34{fill:#0d0d0d;}.cls-35{fill:#d1782f;}.cls-36{stroke:#ec8736;stroke-width:0.1px;}.cls-37,.cls-44{opacity:0.5;}.cls-38{fill:#e4eef3;stroke:#bebdbe;}.cls-39{opacity:0.8;}.cls-40{fill:#c05299;}.cls-41{opacity:0.6;}.cls-42{fill:#c4cdd2;opacity:0.4;}.cls-42,.cls-44{mix-blend-mode:multiply;}.cls-43{fill:#e4f4fe;mix-blend-mode:color-dodge;opacity:0.9;}.cls-44{fill:#b5bdc3;}.cls-45{mix-blend-mode:overlay;opacity:0.7;}</style><clipPath id="clip-path" transform="translate(-134.09 -388.7)"><rect class="cls-1" x="59.34" y="360.05" width="330.21" height="250.08"/></clipPath><linearGradient id="linear-gradient" x1="-4078.8" y1="624.94" x2="-4079.64" y2="633.26" gradientTransform="matrix(1.6, 0, 0, -1.6, 6755.59, 1436.55)" gradientUnits="userSpaceOnUse"><stop offset="0.02" stop-color="#f7c196"/><stop offset="0.11" stop-color="#f4cdaf"/><stop offset="0.29" stop-color="#f7c196"/><stop offset="1" stop-color="#f8b57e"/></linearGradient></defs><g class="cls-2"><g id="Layer_2" data-name="Layer 2"><g class="cls-3"><g id="Flegs_0_Layer2_0_FILL" data-name="Flegs 0 Layer2 0 FILL"><path class="cls-4" d="M272.21,787.08,269.15,796q2.57,7.18,12.67,6.25,6.42-1.46,8.1-5.28a38.74,38.74,0,0,0-1.08-4.51,24.75,24.75,0,0,0-3-6.46,24.8,24.8,0,0,0-13.63,1.06m.54,7.27,3.19-5.47,6.78.06,4.14,4.44L286.2,797l-6.3-1.37-2.94,2Z" transform="translate(-134.09 -388.7)"/><path class="cls-5" d="M275.94,788.88l-3.19,5.47,4.21,3.29,2.94-2,6.3,1.37.66-3.66-4.14-4.44Z" transform="translate(-134.09 -388.7)"/><path class="cls-6" d="M204.55,792.46q-1.22,3.25,12,1.48,22.08-2.88,14.84-16.28a65.58,65.58,0,0,0-7.42,0Q217.41,787.49,204.55,792.46Z" transform="translate(-134.09 -388.7)"/><path class="cls-7" d="M204.55,792.46c-.69.25-1.39.5-2.1.74q-2.05,2.53.3,3.54a23,23,0,0,0,12.07.6A95.46,95.46,0,0,0,239.37,790a23.92,23.92,0,0,0,.67-11.23,54.94,54.94,0,0,0-8.67-1.07q7.24,13.41-14.84,16.28Q203.35,795.72,204.55,792.46Z" transform="translate(-134.09 -388.7)"/></g><g id="Flegs_0_Layer1_0_FILL" data-name="Flegs 0 Layer1 0 FILL"><path class="cls-8" d="M283.56,621.13q.74-22-2.65-38.48l-71.08,5.17q-3.37,14.74-2.45,24.77l4.14,44.86q6.57,43.51,7.33,109.63l-2,5.28,1.8,2.64-2.87,1.92v6.73l6.48,4,16.92,1.92,3.61-5.41q.39-48.2-1.68-97.37-1.62-56.28,2.45-66.81,3.5-.45,10.81,38.06,9.23,62.19,12.67,123.55l2.95,2-2.52,2.94,2.39,6.48,11.59-3,7.5,1.57,4.68-8.68Z" transform="translate(-134.09 -388.7)"/></g><g id="Body_0_Layer3_0_FILL" data-name="Body 0 Layer3 0 FILL"><path class="cls-9" d="M238.94,467.88l-9.17-7.69q0,7.92-1.73,8.61a42.46,42.46,0,0,0,11.83,15.29q13.89-4.81,20.7-16.57-2.34-1-3-6.94a57.71,57.71,0,0,0-9.57,7.3A19.45,19.45,0,0,1,238.94,467.88Z" transform="translate(-134.09 -388.7)"/><path class="cls-10" d="M229.77,460.19l9.17,7.69a19.45,19.45,0,0,0,9,0,57.71,57.71,0,0,1,9.57-7.3q-.69-6.12.38-17.5a237.49,237.49,0,0,1-29.34.14Q229.75,453.95,229.77,460.19Z" transform="translate(-134.09 -388.7)"/></g><g id="Body_0_Layer3_1_FILL" data-name="Body 0 Layer3 1 FILL"><path class="cls-11" d="M264.23,468.63q-12,11.6-24.32,11.43-4,33.13-3.58,58.69,10.85-32.1,27.9-70.12m-24.32,11.43q-9.89-.12-20-7.83,9.74,34,16.09,67.43l.3-.91Q235.93,513.21,239.91,480.06Z" transform="translate(-134.09 -388.7)"/></g><g id="Body_0_Layer3_1_STROKES_1_FILL" data-name="Body 0 Layer3 1 STROKES 1 FILL"><path class="cls-12" d="M239.91,480.05s0,0,0,0l-2.4,19.78-.74,9.48-.59,13.34L236.1,532l.21,6.75h0v0l1.2-29.36,2.37-29.29S239.93,480.05,239.91,480.05Z" transform="translate(-134.09 -388.7)"/></g><g id="Body_0_Layer2_0_FILL" data-name="Body 0 Layer2 0 FILL"><path class="cls-13" d="M242.58,489.66h-5.86q-6,30.09-8.86,56.44a41.64,41.64,0,0,0,8.86,13.19,66.58,66.58,0,0,1,9.1-12.31A513.13,513.13,0,0,0,242.58,489.66Z" transform="translate(-134.09 -388.7)"/><path class="cls-14" d="M236.72,489.66h5.86q4.9-4.74,3.59-9a44.29,44.29,0,0,0-12.28,0Q232.65,486.23,236.72,489.66Z" transform="translate(-134.09 -388.7)"/></g><g id="Body_0_Layer1_0_FILL" data-name="Body 0 Layer1 0 FILL"><path class="cls-15" d="M224.71,492.06a1.34,1.34,0,0,0,.11-.14A48.87,48.87,0,0,1,240,480.2l-11-13.66-9.31,5.71,5,19.81M257,493.32c.16.18.31.36.47.53l8.12-23.56q-1.86-2.71-6.92-5L240,480.2l.72.38h0A58.93,58.93,0,0,1,257,493.32Z" transform="translate(-134.09 -388.7)"/><path class="cls-16" d="M240.74,480.58l-.72-.38a48.87,48.87,0,0,0-15.2,11.72l.81,2.74a49.94,49.94,0,0,1,15.11-14.08M257,494.93v-1.61a58.93,58.93,0,0,0-16.2-12.73Q248.88,488.39,257,494.93Z" transform="translate(-134.09 -388.7)"/></g><g id="Body_0_Layer0_0_MEMBER_0_FILL" data-name="Body 0 Layer0 0 MEMBER 0 FILL"><path class="cls-17" d="M275.9,637.39l1.65-1.08a34.57,34.57,0,0,1-32.08-2.12l.33,1.72A41.2,41.2,0,0,0,257,639.68q11.6,2.51,18.91-2.29m-42.77-2.22.19-2.31a25,25,0,0,1-11.49,7q-8.79,2.49-15.72-4.52,8.53,9.16,18.47,5.59a20.08,20.08,0,0,0,8.55-5.74m3-94.9-.72-2.53,1.35,53.58.12-1.58.37,1.88q-.23-32.86-.4-52.8Z" transform="translate(-134.09 -388.7)"/><path class="cls-18" d="M211,535.41a98.56,98.56,0,0,1,.77,10.84c0,1.09,0,2.19,0,3.31a152.22,152.22,0,0,1-2,23.47q0,.18-4.82,47l-1.25,12.57c.09.13.18.25.28.37a.22.22,0,0,1,.07.09l1.94,2.22q6.91,7,15.72,4.52a25,25,0,0,0,11.49-7,298.35,298.35,0,0,0,3.43-41.54l-1.35-53.58-18.23-64.21L199,483.21l.39,1.17a274.76,274.76,0,0,1,11.69,51m84-50.23c.17-.37.33-.73.49-1.1l-24.09-14-34.61,68.75q.18,19.93.4,52.8a224.21,224.21,0,0,0,8.23,42.57,34.57,34.57,0,0,0,32.08,2.12,61.47,61.47,0,0,1,5.86-3.47l1-.69a1.92,1.92,0,0,1,.22-.18l.49-1.12c.33-.72.38-2.21.17-4.45Q285,586,277.74,552.12a44.14,44.14,0,0,1-.26-4.41q-.12-9.74,3.29-23.19Q285.12,507.47,295.05,485.18Z" transform="translate(-134.09 -388.7)"/></g><g id="Body_0_Layer0_0_MEMBER_0_MEMBER_0_FILL" data-name="Body 0 Layer0 0 MEMBER 0 MEMBER 0 FILL"><path class="cls-17" d="M278.15,612.11l4.82-.74-21.24-8.5,2,3.15Z" transform="translate(-134.09 -388.7)"/></g><g id="Body_0_Layer0_0_MEMBER_0_MEMBER_1_FILL" data-name="Body 0 Layer0 0 MEMBER 0 MEMBER 1 FILL"><path class="cls-17" d="M210.71,611.46l3.17,1.1,13.05-4.75,2.74-3.66Z" transform="translate(-134.09 -388.7)"/></g><g id="Body_0_Layer0_0_MEMBER_1_FILL" data-name="Body 0 Layer0 0 MEMBER 1 FILL"><path class="cls-19" d="M209.71,476.29l9.57,14.39-6.87,5,18.28,34.9-17.07-34.43,6.62-4.76-10.53-15.06M271.9,495l-5.8-6,11.12-14.62-12.7,14,6.29,7.06-17,23.3Z" transform="translate(-134.09 -388.7)"/><path class="cls-18" d="M266,467.58a48.44,48.44,0,0,0-4.95-1.59q-14.28,36.84-24.22,71.33l-.06.24q-3.3-34-7.36-51.73t-4.59-17.72l-15.14,8.18,10.53,15.06-6.62,4.76,17.07,34.43L236.52,542l17.26-23.13,17-23.3-6.29-7.06,12.7-14,.63-.68-.07-.05A76.75,76.75,0,0,0,266,467.58Z" transform="translate(-134.09 -388.7)"/></g><g id="FEars_0_Layer0_0_MEMBER_0_FILL" data-name="FEars 0 Layer0 0 MEMBER 0 FILL"><path class="cls-20" d="M216.78,422.61c-.74.14-1.19,1.14-1.35,3a22.08,22.08,0,0,0,.46,6.47,23.22,23.22,0,0,0,2,6.16q1.27,2.46,2.37,2.25c.74-.14,1.2-1.13,1.37-3a22.35,22.35,0,0,0-.44-6.47,22.83,22.83,0,0,0-2-6.16c-.86-1.65-1.66-2.41-2.39-2.27m.8,7.5a1.92,1.92,0,0,0,.46-1.62,1.92,1.92,0,0,1-.46,1.62,1.79,1.79,0,0,0-.35.57.64.64,0,0,0,.11.34,2.48,2.48,0,0,0,.2.35c.24.26.57.68,1,1.25a4.38,4.38,0,0,0,.51.51c.18.2.33.37.44.52a1.42,1.42,0,0,1,.36,1.31.76.76,0,0,1-.26.38.54.54,0,0,1-.43,0,2.15,2.15,0,0,1-1.11-1.08,2.15,2.15,0,0,0,1.11,1.08.54.54,0,0,0,.43,0,.76.76,0,0,0,.26-.38,1.42,1.42,0,0,0-.36-1.31c-.11-.15-.26-.32-.44-.52a4.38,4.38,0,0,1-.51-.51c-.42-.57-.75-1-1-1.25a2.48,2.48,0,0,1-.2-.35.64.64,0,0,1-.11-.34A1.79,1.79,0,0,1,217.58,430.11Z" transform="translate(-134.09 -388.7)"/></g><g id="FEars_0_Layer0_0_MEMBER_0_STROKES_1_FILL" data-name="FEars 0 Layer0 0 MEMBER 0 STROKES 1 FILL"><path class="cls-21" d="M218,428.49v.12l0,0v.15l-.06.27v0l-.08.24-.13.25-.05.05,0,.09,0,0,0,.06-.41.46-.13.23,0,.12v.19l0,.13.08.18v.07l0,.05.14.27,0,0,0,0,.9,1.18,0,.05h0l0,0,0,0,.08.09,0,0h0l.78.82,0,0,0,0,.07.09v0l0,0,.05.05.18.39v.4l0,.09,0,.05,0,0h0v0l0,0h0l0,0h0v0h-.05l-.07,0v0h-.13l0,0h0l-.05,0h0l-.15-.08-.05,0-.07-.07-.08,0-.47-.48-.13-.16H218v.05l.16.36.36.5.12.12,0,0,.08.08.05,0h0l0,0,.09.07H219l.05,0h0l0,0h.09l0,0h.29l0,0h.08l0,0,0,0h0v0h0l0,0,.07-.07v0l0-.05,0,0,.08-.12,0-.06,0-.05v0h0l.07-.33v-.26l-.1-.41-.19-.39,0,0,0-.06,0-.07h0v0l0,0,0,0-.8-.85,0,0v0h0v0h0v0L217.62,431l-.12-.21v-.05h0l0,0,0,0,.29-.48,0,0,.12-.21v-.05l.05-.07,0-.08v-.08l0-.06.08-.41v-.25l0-.06v-.08l0-.17,0,0v0l0-.08s0,0,0,0Z" transform="translate(-134.09 -388.7)"/></g><g id="FEars_0_Layer0_0_MEMBER_1_FILL" data-name="FEars 0 Layer0 0 MEMBER 1 FILL"><path class="cls-22" d="M271.77,425.6c-.17-1.85-.63-2.85-1.36-3s-1.53.62-2.4,2.27a26.9,26.9,0,0,0-2.45,12.63q.29,2.76,1.38,3c.72.14,1.52-.61,2.38-2.25a26.9,26.9,0,0,0,2.45-12.63m-3,4.77a1.64,1.64,0,0,1,.13-.77,1.73,1.73,0,0,1,.84-.63,1.59,1.59,0,0,0,.8-.66,1.59,1.59,0,0,1-.8.66,1.73,1.73,0,0,0-.84.63,1.64,1.64,0,0,0-.13.77c0,1.11.07,1.79.07,2a11.62,11.62,0,0,1-.12,2,1.84,1.84,0,0,1-.26.79,1,1,0,0,1-.34.19.39.39,0,0,1-.38-.08l-.24-.31-.75-1.76.75,1.76.24.31a.39.39,0,0,0,.38.08,1,1,0,0,0,.34-.19,1.84,1.84,0,0,0,.26-.79,11.62,11.62,0,0,0,.12-2C268.85,432.16,268.82,431.48,268.78,430.37Z" transform="translate(-134.09 -388.7)"/></g><g id="FEars_0_Layer0_0_MEMBER_1_STROKES_1_FILL" data-name="FEars 0 Layer0 0 MEMBER 1 STROKES 1 FILL"><path class="cls-21" d="M270.51,428.3l-.13.14-.24.18-.18.08,0,0-.12.07-.26.08-.44.23,0,0-.06,0,0,0,0,0-.05.06,0,0,0,0-.1.15v0l-.1.21-.08.41v.08l0,.05,0,3.55-.05.5v.09l-.08.39,0,.13-.05.06V435l-.2.1h0v0H268v0h-.05l-.21-.25v0l0-.05,0,0-.92-1.65s0,0,0,0,0,0,0,0l.23.81.05.12.29.91,0,0,0,0,.23.33.08.08.11.07.17,0h.29l.23-.1a.57.57,0,0,0,.21-.15h0v0a.53.53,0,0,0,.13-.2l.09-.19.13-.48v-.09l.13-1.62-.11-2.29,0-.1V430l.07-.24v0l.05-.08v-.05l.05-.05,0,0,0,0h0l0,0,.05-.05.86-.6.1-.1.13-.16,0-.07.05-.13s0,0,0,0S270.51,428.26,270.51,428.3Z" transform="translate(-134.09 -388.7)"/></g><g id="FShape_1_Layer1_0_FILL" data-name="FShape 1 Layer1 0 FILL"><path class="cls-23" d="M263.39,396.2a30,30,0,0,0-39.67,0,23.74,23.74,0,0,0-8.2,18.13,26.8,26.8,0,0,0,3.4,13.49L222.7,449q3.24,5.26,13.36,13.59a35.91,35.91,0,0,0,14.46,0l13.18-11.7Q266.87,436,267,428.8a24.4,24.4,0,0,0,4.62-14.47A23.74,23.74,0,0,0,263.39,396.2Z" transform="translate(-134.09 -388.7)"/></g><g id="FShape_1_Layer0_0_FILL" data-name="FShape 1 Layer0 0 FILL"><path class="cls-20" d="M247.33,391.43a25.56,25.56,0,0,0-6.55-.3l6.55.3m11.83,35.82,2.4-4.66H248.23a5,5,0,0,0,.11,5.25q6.12-2.76,10.82-.59m-19.3-3-4.77-3-7.49-.21-3.37,2.22,1.57,4.9a37,37,0,0,1,3.63-.83c4.52-.81,7.85-.37,10,1.32l-.77,10.68,2.44.58Z" transform="translate(-134.09 -388.7)"/><path class="cls-24" d="M243.64,440a5.93,5.93,0,0,0,2.82-1l-2.69-13.25A80.29,80.29,0,0,0,243.64,440Z" transform="translate(-134.09 -388.7)"/><path class="cls-22" d="M263.44,430.16h-1.59q-6.37,3.42-12.22,2.19l.1,3.87,8.36,10.14,3.57-3.88Z" transform="translate(-134.09 -388.7)"/></g><g id="FShape_1_Layer0_1_FILL" data-name="FShape 1 Layer0 1 FILL"><path class="cls-25" d="M243.87,415.29l-.1,0h-2.08l-.09,0h-.09l-6.4-1H235l-.95-.08c-.27,0-.67,0-1.19,0h-.28l-.21,0h-.07l-.65.09-.25.07h-.06l0,0h0l-1.27.41a5.24,5.24,0,0,0-.65.34l-.08,0-.2.13-.07,0-.05.05-.11.07-.6.52s0,0,0,.05,0,0,0,0l.66-.42.5-.25,1.15-.38.77-.13h.13l.23,0h.13a8.46,8.46,0,0,1,1,0c.5,0,.87,0,1.12.08l.9.11,0,0h0l6.44,1.26h.18l.19,0,1.72,0,.2,0c.65,0,1.15-.09,1.5-.13l5.32-1h.07l2.74-.4c.27,0,.65-.05,1.15-.07h.26l.26,0,2.48.23,1.8.53s0,0,0,0,0,0,0,0l-.31-.18-.79-.36-1.13-.38-1.51-.28-.53,0h0l0,0h-.07l-.14,0h-.28a7.59,7.59,0,0,0-1.18,0H253l-.31,0a1.52,1.52,0,0,0-.33,0l-1.81.19h-.08l-6.45.93h-.18m0,2.58-.1,0h-2.08l-.09,0h-.09l-6.4-1H235l-.95-.08c-.27,0-.67,0-1.19,0l-.13,0h-.15l-.21,0h-.07l-.65.1-.25.06h-.06l0,0h0l-1.27.41a5.24,5.24,0,0,0-.65.34l-.08,0-.2.13-.07,0-.05,0-.11.07-.46.38-.14.14s0,0,0,.05,0,0,0,0l.66-.42.5-.25,1.15-.37.21,0,.11,0,.45-.06h0l0,0h.07l.23,0h.13a8.46,8.46,0,0,1,1-.05c.5,0,.87.05,1.12.08l.9.11,0,0h0l4.22.93,2.22.33h.18l.19,0h1.92c.65,0,1.15-.09,1.5-.13l5.32-1h.07l2.74-.41c.27,0,.65-.05,1.15-.07H255l2.48.22,1.8.53s0,0,0,0,0,0,0,0l-.31-.18-.79-.36-1.13-.38-1.78-.31H255l0,0h-.07l-.14,0h-.28a9.08,9.08,0,0,0-1.18,0H253l-.31,0-.33,0-1.65.16-.16,0h-.08l-6.45.93Z" transform="translate(-134.09 -388.7)"/></g><g id="EyeR_0_Layer3_0_FILL" data-name="EyeR 0 Layer3 0 FILL"><path class="cls-18" d="M258,429.18l.79-1.78a26.4,26.4,0,0,0-9.14.41l.89,1.66A36.38,36.38,0,0,0,258,429.18Z" transform="translate(-134.09 -388.7)"/><path class="cls-26" d="M249.17,426.93l.45.88a26.4,26.4,0,0,1,9.14-.41l.44-1A18,18,0,0,0,249.17,426.93Z" transform="translate(-134.09 -388.7)"/></g><g id="Eyeball_0_Layer0_0_FILL" data-name="Eyeball 0 Layer0 0 FILL"><path class="cls-27" d="M255.69,428.85a1.9,1.9,0,0,0-1.33-3.24,2,2,0,0,0-1.37.55,1.95,1.95,0,0,0,0,2.69,1.92,1.92,0,0,0,1.37.56A1.81,1.81,0,0,0,255.69,428.85Z" transform="translate(-134.09 -388.7)"/></g><g id="Eyeball_0_Layer0_0_MEMBER_0_FILL" data-name="Eyeball 0 Layer0 0 MEMBER 0 FILL"><path class="cls-28" d="M254.86,428.31a.68.68,0,0,0,.19-.48.65.65,0,0,0-.19-.48.69.69,0,0,0-.5-.19.67.67,0,0,0-.47.19.65.65,0,0,0-.19.48.68.68,0,0,0,.19.48.72.72,0,0,0,.47.19A.74.74,0,0,0,254.86,428.31Z" transform="translate(-134.09 -388.7)"/></g><g id="Eyeball_0_Layer0_0_MEMBER_1_FILL" data-name="Eyeball 0 Layer0 0 MEMBER 1 FILL"><path class="cls-18" d="M255.94,428a.39.39,0,0,0,.14-.33.58.58,0,0,0-.14-.35.56.56,0,0,0-.33-.12.52.52,0,0,0-.34.12.56.56,0,0,0-.16.35.38.38,0,0,0,.16.33.53.53,0,0,0,.34.13A.58.58,0,0,0,255.94,428Z" transform="translate(-134.09 -388.7)"/></g><g id="EyeR_0_Layer1_0_FILL" data-name="EyeR 0 Layer1 0 FILL"><path class="cls-20" d="M250.46,424.43l-.92,2.35a18.23,18.23,0,0,1,9.66-.34l-1.59-2.78A15.58,15.58,0,0,0,250.46,424.43Z" transform="translate(-134.09 -388.7)"/></g><path id="EyeR_0_Layer1_0_1_STROKES" data-name="EyeR 0 Layer1 0 1 STROKES" class="cls-29" d="M259.2,426.44a18.23,18.23,0,0,0-9.66.34l-.37.15" transform="translate(-134.09 -388.7)"/><g id="Eybro_0_Layer0_0_FILL" data-name="Eybro 0 Layer0 0 FILL"><path class="cls-18" d="M259.46,419.69l0,0a21.34,21.34,0,0,0-10.07.9c-1.54,1.58-1.94,2.62-1.17,3.11a42.43,42.43,0,0,1,14.44-.28l1.16.18L261,421.34l-.26-.36,1.87-.1a7.84,7.84,0,0,0-3.12-1.17h0Z" transform="translate(-134.09 -388.7)"/></g><g id="EyeL_0_Layer3_0_FILL" data-name="EyeL 0 Layer3 0 FILL"><path class="cls-18" d="M227.33,429.18l-.87-1.94a28.5,28.5,0,0,1,9.25.49l-.92,1.74A36.34,36.34,0,0,1,227.33,429.18Z" transform="translate(-134.09 -388.7)"/><path class="cls-26" d="M236.13,426.93l-.42.8a28.5,28.5,0,0,0-9.25-.49l-.36-.8A18,18,0,0,1,236.13,426.93Z" transform="translate(-134.09 -388.7)"/></g><g id="Eyeball_0_Layer0_0_FILL-2" data-name="Eyeball 0 Layer0 0 FILL"><path class="cls-27" d="M232.29,428.85a1.9,1.9,0,0,0-1.32-3.24,1.94,1.94,0,0,0-1.37.55,1.95,1.95,0,0,0,0,2.69,1.9,1.9,0,0,0,1.37.56A1.78,1.78,0,0,0,232.29,428.85Z" transform="translate(-134.09 -388.7)"/></g><g id="Eyeball_0_Layer0_0_MEMBER_0_FILL-2" data-name="Eyeball 0 Layer0 0 MEMBER 0 FILL"><path class="cls-28" d="M231.47,428.31a.68.68,0,0,0,.19-.48.65.65,0,0,0-.19-.48.69.69,0,0,0-.5-.19.66.66,0,0,0-.47.19.65.65,0,0,0-.19.48.68.68,0,0,0,.19.48.7.7,0,0,0,.47.19A.74.74,0,0,0,231.47,428.31Z" transform="translate(-134.09 -388.7)"/></g><g id="Eyeball_0_Layer0_0_MEMBER_1_FILL-2" data-name="Eyeball 0 Layer0 0 MEMBER 1 FILL"><path class="cls-18" d="M232.54,428a.37.37,0,0,0,.15-.33.54.54,0,0,0-.15-.35.53.53,0,0,0-.32-.12.52.52,0,0,0-.34.12.51.51,0,0,0-.16.35.36.36,0,0,0,.16.33.53.53,0,0,0,.34.13A.55.55,0,0,0,232.54,428Z" transform="translate(-134.09 -388.7)"/></g><g id="EyeL_0_Layer1_0_FILL" data-name="EyeL 0 Layer1 0 FILL"><path class="cls-20" d="M234.84,424.43l.92,2.35a18.24,18.24,0,0,0-9.66-.34l1.59-2.78A15.58,15.58,0,0,1,234.84,424.43Z" transform="translate(-134.09 -388.7)"/></g><path id="EyeL_0_Layer1_0_1_STROKES" data-name="EyeL 0 Layer1 0 1 STROKES" class="cls-29" d="M226.1,426.44a18.24,18.24,0,0,1,9.66.34l.37.15" transform="translate(-134.09 -388.7)"/><g id="Eybro_0_Layer0_0_FILL-2" data-name="Eybro 0 Layer0 0 FILL"><path class="cls-18" d="M225.84,419.69l0,0a21.35,21.35,0,0,1,10.07.9c1.54,1.58,1.94,2.62,1.17,3.11a42.43,42.43,0,0,0-14.44-.28l-1.16.18,2.76-2.24.26-.36-1.88-.1a8,8,0,0,1,3.12-1.17h0Z" transform="translate(-134.09 -388.7)"/></g><g id="FLip_8_Layer0_0_FILL" data-name="FLip 8 Layer0 0 FILL"><path class="cls-30" d="M243.32,446.76a32.6,32.6,0,0,0-7.36-.31,13.61,13.61,0,0,0,4.57,5.56,8.43,8.43,0,0,0,4.71.16q2.67-.59,5.25-6.42a25.92,25.92,0,0,0-7.17,1m-6.82,0a20.56,20.56,0,0,0,6.79,1.08,13.4,13.4,0,0,0,6.5-1.65,7.88,7.88,0,0,1-2.51,3.09,10,10,0,0,1-5.84.8A8,8,0,0,1,236.5,446.75Z" transform="translate(-134.09 -388.7)"/><path class="cls-18" d="M243.29,447.83a20.56,20.56,0,0,1-6.79-1.08,8,8,0,0,0,4.94,3.32,10,10,0,0,0,5.84-.8,7.88,7.88,0,0,0,2.51-3.09A13.4,13.4,0,0,1,243.29,447.83Z" transform="translate(-134.09 -388.7)"/></g><g id="FNose_0_Layer0_0_STROKES_1_FILL" data-name="FNose 0 Layer0 0 STROKES 1 FILL"><path class="cls-21" d="M247.14,440.65l.75-.51h0s0,0,0,0h0l-.62.2a.75.75,0,0,1-.24.08l-2.08.54-.1,0-1.61.17-1.2,0-.52-.06h-.05l0,0-1.14-.21-.08,0-.17,0-1.43-.45s0,0,0,0l0,0,.18.14,1.13.64.26.1.08.05.87.27.11,0,.15.05h.06l.44.08.12,0h.11l.12,0,.05,0h.06q.31,0,.93,0l1.06-.1.05,0,.51-.09.21-.07.82-.24.26-.12.1,0Z" transform="translate(-134.09 -388.7)"/></g><g id="Beard_0_Layer0_0_MEMBER_0_FILL" data-name="Beard 0 Layer0 0 MEMBER 0 FILL"><path class="cls-18" d="M252.12,448a4,4,0,0,0-.79-1.66,5,5,0,0,1,3,2.71,5.65,5.65,0,0,0-.21-2.53,9.85,9.85,0,0,1,3.49,2.24,14.71,14.71,0,0,0-1.34-3,8.44,8.44,0,0,0-3.46-2.54,12.37,12.37,0,0,0-6.16-1.19c-2.27.12-3.57.52-3.9,1.23a1.68,1.68,0,0,0,.13,1.87l.65.85Q249.17,445.54,252.12,448Z" transform="translate(-134.09 -388.7)"/></g><g id="Beard_0_Layer0_0_MEMBER_1_FILL" data-name="Beard 0 Layer0 0 MEMBER 1 FILL"><path class="cls-18" d="M229.84,445.84a16.25,16.25,0,0,0-1.33,3,10,10,0,0,1,3.5-2.24,5.66,5.66,0,0,0-.21,2.53,4.91,4.91,0,0,1,3-2.71A3.83,3.83,0,0,0,234,448q3-2.49,8.59-2s.24-.3.65-.85a1.65,1.65,0,0,0,.13-1.87c-.32-.71-1.63-1.11-3.9-1.22a12.27,12.27,0,0,0-6.16,1.19A8.59,8.59,0,0,0,229.84,445.84Z" transform="translate(-134.09 -388.7)"/></g><g id="FFace_8_Layer1_0_FILL" data-name="FFace 8 Layer1 0 FILL"><path class="cls-31" d="M267.58,426.91l.19-1-3.14-.33a1.27,1.27,0,0,0-.47-.48,8.54,8.54,0,0,0-2.9-.73,33.5,33.5,0,0,0-5.39-.15l-.9,0a10.91,10.91,0,0,0-6.54,1.95,6.5,6.5,0,0,0-2.48,2.95,9.9,9.9,0,0,0-5.53-.16,6.56,6.56,0,0,0-2.39-2.79,11,11,0,0,0-6.57-1.95l-.88,0a33.5,33.5,0,0,0-5.39.15,8.61,8.61,0,0,0-2.9.73,1.15,1.15,0,0,0-.45.48h-2.91l.36,1.06,2.44.28c.05.7.12,1.81.23,3.33a8.07,8.07,0,0,0,.21,1.44,5.94,5.94,0,0,0,2.75,4.12,12,12,0,0,0,13.11,0A5.71,5.71,0,0,0,240.8,431a6.59,6.59,0,0,0-.09-1.09,9.1,9.1,0,0,1,5,.17,5.31,5.31,0,0,0-.08.91,5.77,5.77,0,0,0,2.81,4.84,12,12,0,0,0,13.11,0,6,6,0,0,0,2.76-4.12,8.82,8.82,0,0,0,.19-1.44c.11-1.52.19-2.63.25-3.33l2.84,0M263.35,431a4.91,4.91,0,0,1-2.39,4,11,11,0,0,1-12,0,4.58,4.58,0,0,1,0-8.06,11,11,0,0,1,12,0,4.91,4.91,0,0,1,2.39,4m-31.89-5.8a10,10,0,0,1,6,1.77,5.5,5.5,0,0,1,2.13,2.62.35.35,0,0,0,0,.12.24.24,0,0,0,0,.13,4.11,4.11,0,0,1,.16,1.16,4.91,4.91,0,0,1-2.37,4,11,11,0,0,1-12,0,4.6,4.6,0,0,1,0-8.06A10,10,0,0,1,231.46,425.22Z" transform="translate(-134.09 -388.7)"/><path class="cls-32" d="M237.45,427a11,11,0,0,0-12,0,4.6,4.6,0,0,0,0,8.06,11,11,0,0,0,12,0,4.91,4.91,0,0,0,2.37-4,4.11,4.11,0,0,0-.16-1.16.24.24,0,0,1,0-.13.35.35,0,0,1,0-.12,5.5,5.5,0,0,0-2.13-2.62M261,435.05a4.59,4.59,0,0,0,0-8.06,11,11,0,0,0-12,0,4.58,4.58,0,0,0,0,8.06,11,11,0,0,0,12,0Z" transform="translate(-134.09 -388.7)"/></g><g id="FHair_0_Layer0_0_FILL" data-name="FHair 0 Layer0 0 FILL"><path class="cls-18" d="M218.65,406.37a4,4,0,0,0-3.34-.88,6.52,6.52,0,0,0-3.55,1.65,10.62,10.62,0,0,0-1.16.42q-4.09,1.8-4.26,6.71c1.16-3,2.57-4.46,4.21-4.47q-4,2.11-2.68,8.82c.68-3.53,2.08-5.24,4.2-5.15q-3.15,2-2.84,7.58c0,.41.09,1.64.18,3.71.73-3.48,2.33-5.31,4.82-5.47q-4,3.42-3.61,10.06,3.7-7.19,6.45-6.35a22.37,22.37,0,0,1,3.25,11.25l1.08-3q-1.34-6.75-1.68-9.05a25.72,25.72,0,0,1-.3-4.36,18.81,18.81,0,0,1,1.28-5.49l1.92-3.25a34.11,34.11,0,0,1-4-2.73m57.87,1.19a9.29,9.29,0,0,0-1.16-.42,6.57,6.57,0,0,0-3.53-1.65,4.11,4.11,0,0,0-3.37.86,29.69,29.69,0,0,1-3.95,2.75l1.93,3.25a18.42,18.42,0,0,1,1.27,5.49,24.78,24.78,0,0,1-.31,4.36q-.33,2.3-1.67,9.05l1.08,3A22.5,22.5,0,0,1,270.06,423q2.76-.84,6.46,6.35.44-6.64-3.63-10.08,3.74.25,4.83,5.49c.1-2.07.15-3.31.17-3.71.22-3.71-.73-6.24-2.83-7.58q3.18-.15,4.2,5.15,1.31-6.71-2.68-8.82c1.65,0,3.05,1.5,4.22,4.47C280.68,411,279.26,408.76,276.52,407.56Z" transform="translate(-134.09 -388.7)"/></g><g id="Layer1_20_MEMBER_3_MEMBER_0_FILL" data-name="Layer1 20 MEMBER 3 MEMBER 0 FILL"><path class="cls-9" d="M157.69,492.26l-5.07,3.7,7.25,13.83,7.54-7.19Z" transform="translate(-134.09 -388.7)"/></g><g id="Layer1_20_MEMBER_3_MEMBER_1_FILL" data-name="Layer1 20 MEMBER 3 MEMBER 1 FILL"><path class="cls-11" d="M157.41,512.1l7.79,9.32,12.2-12.12L169.15,501Z" transform="translate(-134.09 -388.7)"/></g><g id="Layer1_20_MEMBER_3_MEMBER_2_FILL" data-name="Layer1 20 MEMBER 3 MEMBER 2 FILL"><path class="cls-18" d="M174.1,502.74l-17.21,16.35q12.54,16.23,39.05,42.65l7-28.94Z" transform="translate(-134.09 -388.7)"/></g><g id="Layer1_20_MEMBER_4_FILL" data-name="Layer1 20 MEMBER 4 FILL"><path class="cls-18" d="M199.29,483q-7,37.85-10,42.16l6.84,36.46,19.22-34.87Q210,496.89,199.29,483Z" transform="translate(-134.09 -388.7)"/></g><g id="RHand_0_Layer0_0_FILL" data-name="RHand 0 Layer0 0 FILL"><path class="cls-9" d="M269.08,601.22l-1.58,3.93,10,5.39,1.73-.42Q276.33,605.92,269.08,601.22Z" transform="translate(-134.09 -388.7)"/><path class="cls-33" d="M280,609.34l3.37-3.29q-2.47-4.39-12.82-7.81l-1.48,3q7.23,4.69,10.14,8.9Z" transform="translate(-134.09 -388.7)"/><path class="cls-34" d="M280,609.34a7,7,0,0,0,4.88.81c.09-.79-.42-2.16-1.51-4.1Z" transform="translate(-134.09 -388.7)"/><path class="cls-18" d="M295.4,484q-8.32,16-15.27,40.28l7.09,26.73-1.37,3.38,1.22.65L271.19,597c2-2.65,1.78-2.23-.63,1.26q10.35,3.4,12.82,7.81c1.09,1.94,1.6,3.31,1.51,4.1l23.75-53.69v-.72l-.44-.07h.38Q302.39,515.44,295.4,484Z" transform="translate(-134.09 -388.7)"/></g><g id="Handss_16_Layer0_0_FILL" data-name="Handss 16 Layer0 0 FILL"><path class="cls-35" d="M155.94,483.35l0,0-.08-.13-.36-.06.21.32a1.15,1.15,0,0,1-.5,1.49,7.24,7.24,0,0,1-3,.88l0,.28a7.53,7.53,0,0,0,3.13-.94,1.52,1.52,0,0,0,.73-1.07l.13.23a.12.12,0,0,0,.08.06.13.13,0,0,0,.1,0,.1.1,0,0,0,.06-.08.17.17,0,0,0,0-.1c-.17-.28-.34-.55-.49-.82m8.53,15.78a.15.15,0,0,0,0-.11q-.06-11.92-1.73-14.66s0,0,0,0a18,18,0,0,1-2.68-3.07c0,.11-.07.21-.11.31.17.25.36.5.55.74a17.8,17.8,0,0,0,2.05,2.2q1.62,2.73,1.68,14.52a.09.09,0,0,0,0,.08h0a.13.13,0,0,0,.1,0l.09,0M147.75,493a.2.2,0,0,0,.11,0,47.87,47.87,0,0,0,7.77-1.72q2.25,0,5.19,3.83a.11.11,0,0,0,.09,0,.1.1,0,0,0,.1,0,.13.13,0,0,0,.05-.09.14.14,0,0,0,0-.09Q158,491,155.61,491h0a46.43,46.43,0,0,1-7.75,1.71.14.14,0,0,0-.1,0,.16.16,0,0,0,0,.1.13.13,0,0,0,.05.09m-4.06,1.75a1.15,1.15,0,0,1-.27-.27,2.31,2.31,0,0,1,2-.34.12.12,0,0,0,.1,0,.14.14,0,0,0,.07-.08.16.16,0,0,0,0-.1.16.16,0,0,0-.08-.06,2.55,2.55,0,0,0-2.2.38,1.64,1.64,0,0,1-.21-.7l-.27.07a1.75,1.75,0,0,0,.34.9h0a1.63,1.63,0,0,0,.41.42.08.08,0,0,0,.09,0,.14.14,0,0,0,.1-.05.16.16,0,0,0,0-.1.11.11,0,0,0-.05-.09M159,503.93l0,0-2.47-4.18.71,0,.1,0a.18.18,0,0,0,0-.09.17.17,0,0,0,0-.1.2.2,0,0,0-.09-.05l-14.43-1.21a38.35,38.35,0,0,1-3.65-3.78l-.28.06a34.67,34.67,0,0,0,3.78,3.94.1.1,0,0,0,.09,0l13.43,1.14,2.59,4.37a.1.1,0,0,0,.08.06.17.17,0,0,0,.1,0A.15.15,0,0,0,159,504,.12.12,0,0,0,159,503.93Z" transform="translate(-134.09 -388.7)"/><path class="cls-9" d="M143.42,494.44a1.15,1.15,0,0,0,.27.27.11.11,0,0,1,.05.09.16.16,0,0,1,0,.1.14.14,0,0,1-.1.05.08.08,0,0,1-.09,0,1.63,1.63,0,0,1-.41-.42h0a1.75,1.75,0,0,1-.34-.9l-3.6.93a38.35,38.35,0,0,0,3.65,3.78l14.43,1.21a.2.2,0,0,1,.09.05.17.17,0,0,1,0,.1.18.18,0,0,1,0,.09l-.1,0-.71,0,2.47,4.18,5.28-4.8a.09.09,0,0,1,0-.08q-.06-11.79-1.68-14.52a17.8,17.8,0,0,1-2.05-2.2c-.19-.24-.38-.49-.55-.74-.67,1.54-2,2.09-4,1.65l-.14,0,.08.13,0,0c.15.27.32.54.49.82a.17.17,0,0,1,0,.1.1.1,0,0,1-.06.08.13.13,0,0,1-.1,0,.12.12,0,0,1-.08-.06l-.13-.23a1.52,1.52,0,0,1-.73,1.07,7.53,7.53,0,0,1-3.13.94h0a1.84,1.84,0,0,1-.8,1.66s0,0,0,.07a6.09,6.09,0,0,1-1.92,2.54h0a7.24,7.24,0,0,1-4.31.46c-.07.22-.16.46-.26.7a.1.1,0,0,1-.07.07,12.94,12.94,0,0,0-1.69.89.12.12,0,0,1,0,.05.2.2,0,0,1,0,.1,2.39,2.39,0,0,0-.14.87,1.64,1.64,0,0,0,.21.7,2.55,2.55,0,0,1,2.2-.38.16.16,0,0,1,.08.06.16.16,0,0,1,0,.1.14.14,0,0,1-.07.08.12.12,0,0,1-.1,0,2.31,2.31,0,0,0-2,.34m4.44-1.45a.2.2,0,0,1-.11,0,.13.13,0,0,1-.05-.09.16.16,0,0,1,0-.1.14.14,0,0,1,.1,0,46.43,46.43,0,0,0,7.75-1.71h0q2.35,0,5.42,3.94a.14.14,0,0,1,0,.09.13.13,0,0,1-.05.09.1.1,0,0,1-.1,0,.11.11,0,0,1-.09,0q-2.94-3.78-5.19-3.83A47.87,47.87,0,0,1,147.86,493Z" transform="translate(-134.09 -388.7)"/></g><path id="Handss_16_Layer0_0_1_STROKES" data-name="Handss 16 Layer0 0 1 STROKES" class="cls-36" d="M143.05,493.52l-.27.07" transform="translate(-134.09 -388.7)"/><g class="cls-37"><path class="cls-38" d="M150.74,487.26V472h-7.13v15.22L135,509.38s-2,3.67,3.24,3.67h17.93c5.34,0,3.25-3.67,3.25-3.67Z" transform="translate(-134.09 -388.7)"/></g><g class="cls-39"><path class="cls-40" d="M153.22,494.55h-12l-5.79,14.64s-1.94,3.54,3.12,3.54h17.26c5.13,0,3.12-3.54,3.12-3.54Z" transform="translate(-134.09 -388.7)"/></g><g class="cls-41"><path class="cls-38" d="M151.86,471.05a.91.91,0,0,1-.86,1h-7.52a.91.91,0,0,1-.86-1h0a.91.91,0,0,1,.86-1H151a.91.91,0,0,1,.86,1Z" transform="translate(-134.09 -388.7)"/><path class="cls-42" d="M151,470.08h-7.52a1,1,0,0,0,0,1.94H151a1,1,0,0,0,0-1.94Zm-2.68,1.5h-4.74a.54.54,0,0,1-.54-.53.53.53,0,0,1,.54-.53h4.74a.54.54,0,0,1,.54.53A.54.54,0,0,1,148.32,471.58Z" transform="translate(-134.09 -388.7)"/><path class="cls-43" d="M144.45,471a.3.3,0,0,1-.28.31h-.47a.3.3,0,0,1-.28-.31h0a.3.3,0,0,1,.28-.32h.47a.3.3,0,0,1,.28.32Z" transform="translate(-134.09 -388.7)"/><path class="cls-42" d="M151,470.08h-1.34a1,1,0,0,1,.71.81,1.06,1.06,0,0,1-.6,1.13H151a1,1,0,0,0,0-1.94Z" transform="translate(-134.09 -388.7)"/></g><path class="cls-42" d="M159.39,509.38l-8.65-22.12V472h-7.13v15.22L135,509.38s-2,3.67,3.24,3.67h17.93C161.48,513.05,159.39,509.38,159.39,509.38Zm-9.48,1.1H138c-2-.2-1-2.45-1-2.45l7.24-20.78V472.61h.8l3.25.06V487l4.34,21.1C153.05,510.61,149.91,510.48,149.91,510.48Z" transform="translate(-134.09 -388.7)"/><path class="cls-1" d="M138,510.48h11.92s3.14.13,2.69-2.39L148.26,487V472.67l-3.25-.06h-.8v14.64L137,508S136,510.28,138,510.48Z" transform="translate(-134.09 -388.7)"/><path class="cls-44" d="M159.39,509.38l-8.65-22.12V472h-1.22v14.89s7.12,20.71,7.3,23-2.46,1.93-2.46,1.93H136.51c-1.82-.32-1.2-3.16-1.2-3.16l-.05-.05-.29.76s-2,3.67,3.24,3.67h17.93C161.48,513.05,159.39,509.38,159.39,509.38Z" transform="translate(-134.09 -388.7)"/><path class="cls-45" d="M144.64,473.06v14.29l-6.76,20.52s-.51,1.64.31,1.83h3.91a2,2,0,0,0,1.94-1.61c.16-1.17,2.22-20.84,2.22-20.84V472.93Z" transform="translate(-134.09 -388.7)"/><g id="Layer1_21_MEMBER_2_FILL" data-name="Layer1 21 MEMBER 2 FILL"><path class="cls-9" d="M140.25,486.43v.05a20.18,20.18,0,0,0-.56,3h0v0a.11.11,0,0,1,0,.09,7.73,7.73,0,0,0-1.74,2.62c0,.58.9,1.53,2.7,2.86l1.52-1.59h0l0,0,.05,0,.23-.16h0l-.08,0a.28.28,0,0,1,0-.13.1.1,0,0,1,.06-.1,13.56,13.56,0,0,1,3.18-2.06,7.27,7.27,0,0,0,.27-.83v0q.8-3-1.64-3.81a4.11,4.11,0,0,0-.14,3.43.15.15,0,0,1,0,.11.09.09,0,0,1-.06.08.17.17,0,0,1-.1,0l-3.08-.14a.16.16,0,0,1-.11-.05.19.19,0,0,1,0-.12h0a.07.07,0,0,1-.06-.07.09.09,0,0,1,0-.12,6.56,6.56,0,0,1,.79-1.59l-.71.68s0,0-.05,0a.15.15,0,0,1-.13,0,.15.15,0,0,1-.08-.08.2.2,0,0,1,0-.13q1.84-4.11,3.94-4.33a.16.16,0,0,1,.11,0s0,0,0,0h.1l8.29,2.28a1.86,1.86,0,0,0,.83-1.84v0a3.22,3.22,0,0,0-.19-.72,15.4,15.4,0,0,0-8.39-2.36h0a4.31,4.31,0,0,0-1.62.27s0,0,0,0q-2.25.94-3.24,4.83m8.85-3a.19.19,0,0,1,0-.1s.06-.06.09-.06a5.12,5.12,0,0,1,3.62.34.18.18,0,0,1,.08.09.11.11,0,0,1,0,.11l-.87,1.88a.27.27,0,0,1-.08.07.12.12,0,0,1-.09,0l-.08,0-2.64-2.21a.14.14,0,0,1-.06-.1m2.75,1.95.72-1.57a4.85,4.85,0,0,0-3-.3l2.24,1.87m-.16,1.41a8.59,8.59,0,0,0-4.37-.24l2.94,2.6a3.14,3.14,0,0,1,1.43-2.36m-7.82-.63-.48-.08a8.09,8.09,0,0,0-2.49,3.38l2.78.13a4.35,4.35,0,0,1,.19-3.43m.58-1.88,0,0q-1.74.21-3.32,3.37c.6-.59,1.3-1.21,2.09-1.87a.1.1,0,0,1,.08,0h.12a4,4,0,0,1,.76.16c1.86.52,2.53,1.88,2,4.06a8.61,8.61,0,0,0,4.14-.39l0,0-3.38-3a.13.13,0,0,1,0-.09.12.12,0,0,1,0-.1.11.11,0,0,1,.09-.06,8.68,8.68,0,0,1,5.17.27c.05,0,.08,0,.09.07a.2.2,0,0,1-.07.22,3,3,0,0,0-1.62,2.58,0,0,0,0,0,0,0,2.43,2.43,0,0,0,.37-.16,6.56,6.56,0,0,0,1.92-2.72l-8.29-2.27-.07-.06m-7.15-2.17,2.72,4c.67-2.41,1.72-4,3.14-4.63q-3-2.39-.36-6.48a1.65,1.65,0,0,0,.23-1.41,2.54,2.54,0,0,0-1.17-1.22h0a2.31,2.31,0,0,0-2.3-.06A13.28,13.28,0,0,0,137.3,482.09Z" transform="translate(-134.09 -388.7)"/><path class="cls-35" d="M149.13,483.31a.19.19,0,0,0,0,.1.14.14,0,0,0,.06.1l2.64,2.21.08,0a.12.12,0,0,0,.09,0,.27.27,0,0,0,.08-.07l.87-1.88a.11.11,0,0,0,0-.11.18.18,0,0,0-.08-.09,5.12,5.12,0,0,0-3.62-.34s-.06,0-.09.06m3.44.48-.72,1.57-2.24-1.87a4.85,4.85,0,0,1,3,.3M139.35,472l0,0A13.6,13.6,0,0,0,137,482.2l0,.06,2.88,4.18a21.54,21.54,0,0,0-.54,2.94,7.7,7.7,0,0,0-1.8,2.74v0q-.06.91,2.78,3.31l.22-.42c-1.8-1.33-2.7-2.28-2.7-2.86a7.73,7.73,0,0,1,1.74-2.62.11.11,0,0,0,0-.09v0h0a20.18,20.18,0,0,1,.56-3v-.05q1-3.89,3.24-4.83s0,0,0,0a4.31,4.31,0,0,1,1.62-.27h0a15.4,15.4,0,0,1,8.39,2.36,3.22,3.22,0,0,1,.19.72v0a1.86,1.86,0,0,1-.83,1.84L144.62,484h-.1s0,0,0,0a.16.16,0,0,0-.11,0q-2.1.23-3.94,4.33a.2.2,0,0,0,0,.13.15.15,0,0,0,.08.08.15.15,0,0,0,.13,0s0,0,.05,0l.71-.68a6.56,6.56,0,0,0-.79,1.59.09.09,0,0,0,0,.12.07.07,0,0,0,.06.07h0a.19.19,0,0,0,0,.12.16.16,0,0,0,.11.05l3.08.14a.17.17,0,0,0,.1,0,.09.09,0,0,0,.06-.08.15.15,0,0,0,0-.11,4.11,4.11,0,0,1,.14-3.43q2.43.78,1.64,3.81v0a7.27,7.27,0,0,1-.27.83,13.56,13.56,0,0,0-3.18,2.06.1.1,0,0,0-.06.1.28.28,0,0,0,0,.13l.08,0h0l.1,0,0,0,0,0h0l1.28-1a15.86,15.86,0,0,1,1.81-1c.05,0,.08,0,.08-.08.11-.29.21-.57.28-.83a8.21,8.21,0,0,0,5-.68h0a7,7,0,0,0,2.13-3v-.07a2.05,2.05,0,0,0,.87-1.93l0,0,0-.31h0a4,4,0,0,0-.19-.69l-.06-.09a15.68,15.68,0,0,0-8.61-2.42h0a4.6,4.6,0,0,0-1.67.25q-2.91-2.26-.43-6.18h0a2,2,0,0,0,.27-1.68A2.75,2.75,0,0,0,142,472h0a2.57,2.57,0,0,0-2.65,0M140,486l-2.72-4a13.28,13.28,0,0,1,2.24-9.85,2.31,2.31,0,0,1,2.3.06h0a2.54,2.54,0,0,1,1.17,1.22,1.65,1.65,0,0,1-.23,1.41q-2.6,4.1.36,6.48c-1.42.67-2.47,2.22-3.14,4.63m4.4-1.76,0,0,.07.06,8.29,2.27a6.56,6.56,0,0,1-1.92,2.72,2.43,2.43,0,0,1-.37.16,0,0,0,0,1,0,0,3,3,0,0,1,1.62-2.58.2.2,0,0,0,.07-.22s0-.05-.09-.07a8.68,8.68,0,0,0-5.17-.27.11.11,0,0,0-.09.06.12.12,0,0,0,0,.1.13.13,0,0,0,0,.09l3.38,3,0,0a8.61,8.61,0,0,1-4.14.39c.52-2.18-.15-3.54-2-4.06a4,4,0,0,0-.76-.16h-.12a.1.1,0,0,0-.08,0c-.79.66-1.49,1.28-2.09,1.87q1.58-3.16,3.32-3.37m-1,1.78.48.08a4.35,4.35,0,0,0-.19,3.43l-2.78-.13a8.09,8.09,0,0,1,2.49-3.38m3.93.47a8.59,8.59,0,0,1,4.37.24,3.14,3.14,0,0,0-1.43,2.36Z" transform="translate(-134.09 -388.7)"/></g><path id="Layer1_21_MEMBER_2_1_STROKES" data-name="Layer1 21 MEMBER 2 1 STROKES" class="cls-36" d="M142.14,493.42l0,0h0l-1.52,1.59" transform="translate(-134.09 -388.7)"/><g id="Layer1_21_MEMBER_3_FILL" data-name="Layer1 21 MEMBER 3 FILL"><path class="cls-9" d="M155.75,474.75a3.2,3.2,0,0,0-3.14,1.86,7.94,7.94,0,0,0-.58,1.51,2.78,2.78,0,0,0,.82,3.17,13.38,13.38,0,0,1,3.1,3.34l.16,0q3.49.54,4.47-2.19a24.93,24.93,0,0,1-3.21-5.29c-.33-.74-.65-1.52-.94-2.33A5.58,5.58,0,0,0,155.75,474.75Z" transform="translate(-134.09 -388.7)"/><path class="cls-35" d="M155.54,474.43a3.37,3.37,0,0,0-3.12,1.88,7.51,7.51,0,0,0-.69,1.73h0c-.39,1.58-.08,2.75.94,3.5h0a12.2,12.2,0,0,1,2.86,3l.42.05a13.38,13.38,0,0,0-3.1-3.34,2.78,2.78,0,0,1-.82-3.17,7.94,7.94,0,0,1,.58-1.51,3.2,3.2,0,0,1,3.14-1.86,5.58,5.58,0,0,1,.68.1c.29.81.61,1.59.94,2.33a24.93,24.93,0,0,0,3.21,5.29l.12-.36-.26-.33a20.93,20.93,0,0,1-1.51-2.28,27.63,27.63,0,0,1-2.24-4.84.07.07,0,0,0,0-.06l-.07,0A4.93,4.93,0,0,0,155.54,474.43Z" transform="translate(-134.09 -388.7)"/></g></g></g></g></svg>